<svg xmlns="http://www.w3.org/2000/svg" width="32" height="32" version="1"><path fill="#e64c65" d="M32 16c0 8.836-7.164 16-16 16S0 24.836 0 16 7.164 0 16 0s16 7.164 16 16z"/><path fill="#fff" d="M17.124 9.271v3.555h2.03c-.084-.17-.084-.339-.084-.508-.084-.762.085-1.523.931-2.454.17-.17 0-.508-.254-.593h-2.623V8.086l2.285-1.27a.465.465 0 0 0 .254-.423.465.465 0 0 0-.423-.254h-.085s-.085 0-.085.085l-2.454 1.439c-.085.084-.17.17-.17.254V9.27h-4.401c-.254 0-.254.339-.17.593 1.101 1.27 1.186 2.03 1.017 2.793 0 .084-.085.084-.085.169h3.64V9.271m-3.894 4.232c-.254.508-.508 1.016-.762 1.608-.508 1.27-.338 2.54.423 3.555.678.931 1.863 1.608 3.47 1.693v3.216c-.761 0-1.438.085-2.03.254-.34.085-.593.17-.762.254-.17.085-.424.339-.424.593 0 .254.17.508.424.592.253.17.507.254.761.339.593.17 1.44.254 2.37.254.931 0 1.778-.085 2.37-.254.339-.085.593-.17.762-.339.17-.084.423-.338.423-.592 0-.339-.254-.508-.423-.593-.254-.084-.423-.169-.762-.254-.508-.169-1.27-.254-2.031-.254V20.36c1.608-.085 2.878-.592 3.555-1.524.761-.93.761-2.37.084-3.724-.254-.592-.507-1.1-.677-1.523H12.553v-.085zm2.878 1.693c.169 0 .338.17.338.338 0 .17-.169.254-.338.254-.17 0-.254-.084-.254-.254 0-.169.084-.338.254-.338zm2.37.762c.084 0 .084 0 .084.084.17.085.254.254.17.424-.085.169-.254.253-.424.169-.169-.085-.254-.254-.169-.423.085-.17.254-.254.339-.254zm-4.148.423c.17 0 .339.17.339.338 0 .17-.17.339-.339.339s-.254-.17-.254-.339.085-.338.254-.338zm1.524 1.523c.17 0 .338.085.338.339 0 .17-.169.339-.338.339a.364.364 0 0 1-.339-.339c.085-.17.17-.339.339-.339zm2.54.085s.084 0 .084.085c.169.084.254.254.169.423-.085.085-.254.17-.423.085-.17-.085-.254-.254-.17-.424.085-.084.254-.169.34-.169z"/></svg>