<svg xmlns="http://www.w3.org/2000/svg" width="32" height="32" version="1"><path fill="#e64c65" d="M32 16c0 8.836-7.164 16-16 16-8.835 0-16-7.164-16-16S7.166 0 16 0c8.836 0 16 7.164 16 16z"/><path fill="#fff" d="M15.956 6c-5.462 0-9.955 4.493-9.955 10.044C6 21.507 10.494 26 15.956 26c5.463 0 10.045-4.493 10.045-9.956C26 10.582 21.419 6 15.956 6zm-1.145 2.026c.353 0 .705 0 1.057.089a.485.485 0 0 1 .265.44c0 .176-.265.264-.44.264-1.146-.352-2.38.089-3.085 1.058-.088.176-.352.264-.528.088-.176-.176-.176-.44 0-.529.705-.88 1.762-1.41 2.731-1.41zm2.731.177c.088 0 .088 0 0 0h.265c2.907.705 5.198 2.907 5.99 5.727.089.176-.087.44-.263.44-.177.088-.441-.088-.441-.264a7.395 7.395 0 0 0-5.463-5.287c-.176 0-.352-.088-.352-.264 0-.176.088-.352.264-.352zm-5.903 3.171h.881c1.146.089 2.203.265 3.172.793 1.938.97 3.7 2.732 5.286 5.463a5.13 5.13 0 0 1 1.674-.264h.793c.089 0 .177 0 .265.088.088 0 .088 0 .176.088 0 .088.088.088.088.176v.264c-1.145 2.027-1.145 2.115-2.467 4.406-.088.088-.264.176-.352.176-.088 0-.177-.088-.265-.088-.088-.088-.176-.088-.264-.265a1.918 1.918 0 0 1-.44-.704c-.265-.44-.441-1.058-.53-1.674-.616 0-1.144 0-1.761-.088l.352-1.058c.088-.264-.176-.528-.44-.44-.088 0-.265.088-.265.264l-.44 1.145v.089c-.353-.089-.705-.089-1.057-.177 0-.088 0-.088.088-.088l.616-1.85c.088-.264-.088-.529-.352-.529-.088 0-.264.088-.264.265l-.705 1.938c0 .088-.088.088-.088.176-.353-.088-.793-.264-1.146-.352l.881-2.38c.088-.175-.088-.528-.352-.44-.176 0-.264.088-.352.265l-.882 2.379c-.616-.265-1.145-.53-1.585-.881-1.85-1.322-2.996-3.26-3.437-5.815 0-.177.089-.353.265-.353 1.233-.352 2.114-.44 2.907-.529zm-.44 1.41a.602.602 0 0 0-.617.617c0 .352.264.617.617.617a.602.602 0 0 0 .616-.617.602.602 0 0 0-.616-.617z"/></svg>