<svg xmlns="http://www.w3.org/2000/svg" width="32" height="32" version="1"><path fill="#e64c65" d="M32 16c0 8.836-7.165 16-16 16-8.836 0-16-7.164-16-16S7.164 0 16 0c8.835 0 16 7.164 16 16z"/><path fill="#fff" d="M16.155 6c-.978.089-1.867.622-2.222 1.6-.8 0-1.6.356-2.133.978-1.245 1.244-1.245 3.378 0 4.622h.088c0 .711.09 1.333.356 1.867.267.622.889 1.066 1.689 1.422l1.689 9.156c0 .177.178.355.355.355a.382.382 0 0 0 .356-.355l1.689-9.156c.622-.267 1.155-.622 1.51-1.156.357-.533.623-1.244.623-2.133.622-.622.89-1.422.978-2.222 0-.8-.267-1.6-.8-2.311-.445-.534-1.156-.89-1.778-.978a2.776 2.776 0 0 0-1.422-1.422c-.356-.178-.711-.267-.978-.267zm0 .711c.267 0 .445.09.711.178.356.089.711.444.89.711-.623.089-1.245.267-1.779.622a3.022 3.022 0 0 0-1.333-.622c.267-.533.889-.889 1.511-.889zm-2.222 1.69c.622 0 1.244.266 1.778.71.444.445.71.978.71 1.6 0 .178.179.356.356.356a.382.382 0 0 0 .356-.356c-.089-.622-.267-1.244-.711-1.778.978-.8 2.489-.622 3.378.356.888.978.8 2.4-.09 3.378h-7.644c-.889-.978-.889-2.49.09-3.556.532-.533 1.155-.71 1.777-.71z"/></svg>